# xmcd CD database file
#
# Track frame offsets:
#	182
#	23932
#	40982
#	58960
#
# Disc length: 1011 seconds
#
# Revision: 0
# Processed by: cddbd v1.5.2PL0 Copyright (c) Steve Scherf et al.
# Submitted via: CDex 1.70beta2
#
DISCID=3303f104
DTITLE=Conway Twitty and Sam Moore - Rainy Night in Georgia
DYEAR=1994
DGENRE=Blues
TTITLE0=Rainy Night in Georgia
TTITLE1=Crazy in Love
TTITLE2=I'm the Only Thing I'll Hold Against You
TTITLE3=She's got a Single Thing in Mind
EXTD=YEAR: 1994
EXTT0=
EXTT1=
EXTT2=
EXTT3=
PLAYORDER=
